<svg xmlns="http://www.w3.org/2000/svg" viewBox="0 0 100.27 91.71"><defs><style>.cls-1,.cls-2{fill:#212a2f;}.cls-1{fill-rule:evenodd;}</style></defs><title>Asset 1</title><g id="Layer_2" data-name="Layer 2"><g id="Layer_1-2" data-name="Layer 1"><path class="cls-1" d="M519,279.86A45.77,45.77,0,0,1,564.68,234H579.6c13.57,0,21.78,4.54,27.24,9.35a31,31,0,0,1,5.69,6.6,23.68,23.68,0,0,1,1.28,2.26c.14.29.25.52.33.7a1.46,1.46,0,0,0,.09.21l0,.08v0h0s0,0-3.5,1.37l3.51-1.36,2,5.13H564.68a21.48,21.48,0,0,0,0,42.95H582a13,13,0,0,0,12.45-9.28H564.68a12.2,12.2,0,0,1,0-24.39h18.13a19.7,19.7,0,0,1,19.45,16.83H615.5v3.78h3.76A37.38,37.38,0,0,1,582,325.71H564.68A45.77,45.77,0,0,1,519,279.86Zm92.5,12.19h-9.37A20.55,20.55,0,0,1,582,308.88H564.68a29,29,0,0,1,0-58h39.05a24.36,24.36,0,0,0-1.84-1.8c-4.11-3.61-10.56-7.48-22.29-7.48H564.68a38.31,38.31,0,0,0,0,76.61H582A29.84,29.84,0,0,0,611.5,292.05Zm-16.9-7.56a12.16,12.16,0,0,0-11.79-9.28H564.68a4.64,4.64,0,0,0,0,9.28Z" transform="translate(-519 -234)"/><path class="cls-2" d="M614.44,284.49h4.83v3.91l-4.45-.09Z" transform="translate(-519 -234)"/></g></g></svg>